<svg xmlns="http://www.w3.org/2000/svg" height="40px" viewBox="0 -960 960 960" width="40px" fill="white">
    <path d="M 207 -446.7 h 639.7 q 14.3 0 23.8 -9.5 q 9.5 -9.5 9.5 -23.8 q 0 -14.3 -9.5 -23.8 q -9.5 -9.5 -23.8 -9.5 H 207 L 383.3 -690 q 9.7 -9.7 9.8 -23.2 q 0.2 -13.5 -9.8 -23.5 q -9.7 -9.7 -23.3 -9.7 q -13.7 0 -23.3 9.7 L 103.3 -503.3 q -5.3 5.3 -7.5 11 q -2.2 5.7 -2.2 12.3 t 2.2 12.3 q 2.2 5.7 7.5 11 l 233.3 233.3 q 9.7 9.7 23.2 9.7 t 23.5 -9.7 q 10 -10 10 -23.5 t -10 -23.5 L 207 -446.7 Z"/>
    <path d="M 1357.9 -474.9 S 23 21 23 21 S 23 21 23 21 S 23 21 23 21"/>
</svg>