<svg xmlns="http://www.w3.org/2000/svg" width="48" height="48" viewBox="0 0 192 192">

  <style>
    @media (prefers-color-scheme: dark) {
      svg { filter: invert(0%) hue-rotate(0deg) saturate(100%) contrast(100%) brightness(1); }
    }
  </style><path fill="#FDA500" d="M0 0h192v192H0z"/><path fill="#FDFDFD" d="M133.621 47.035c9.3 7.8 16.1 16.6 20.4 28l.9 2.4c4.9 14.5 2.6 29.7-2.9 43.6-.3.8-.6 1.5-.9 2.3-6.8 15.5-21.8 26.8-37.6 31.5-16.9 4.7-35.6 3-50.5-6.8-3.7-2.7-6.9-5.8-10-9l-1.1-1.1c-11.8-11.6-18.3-29.1-17.3-45.6 1.8-18.4 10.1-35.5 25.2-46.5 5.3-3.6 11.1-6.6 17.2-8.8.5-.2.9-.4 1.4-.6 18.1-5.9 40.5-1.1 55.2 10.6"/><path fill="#FCFCFC" d="M191 112h1v80h-80v-1c.9-.2 1.9-.4 2.8-.6 16.3-3.4 31.7-10.3 44.2-21.4.5-.4 1-.9 1.5-1.3 15.8-14.2 27.4-34.6 30.5-55.7M0 111h1c.2.8.3 1.6.5 2.4C5.8 133.8 14 150.3 29 165l1.3 1.3C44 179.9 61.2 187.4 80 191v1H0zM111 0h81v80h-1c-.1-.6-.1-.6-.3-1.3-2-9.1-4.4-17.4-8.7-25.7-.5-.9-.9-1.8-1.4-2.8-3.4-6.7-7.6-12.6-12.6-18.2-.4-.4-.8-.9-1.2-1.4C152.8 15.1 132 3.3 111 1z"/><path fill="#FDFDFD" d="M0 0h80v1c-.4.1-.9.2-1.3.3-9.1 2-17.4 4.4-25.7 8.7-.9.4-1.8.9-2.7 1.3C43.1 15 37 19.6 31 25c-.6.5-.6.5-1.2 1.1C14 40.2 5.2 59.5 1 80H0z"/><path fill="#36291A" d="M95.25-.187h4.1c10-.1 19 .9 28.3 4.3.6.2 1.2.4 1.8.7 11.3 4.2 21.7 10 30.6 18.2.4.4.9.8 1.4 1.3 8.1 7.3 14.2 15.2 19.6 24.7l.8 1.6c8.2 14.5 10.3 28.4 10.4 45 0 2.1 0 2.1.1 4.3 0 8.5-.8 16-3.3 24.1-.2.6-.4 1.3-.7 1.9-.5 1.5-1 3-1.6 4.5-.2.6-.4 1.1-.6 1.6-4.2 10.4-9.6 19.7-17.1 28l-1.4 1.4c-11.1 12.2-24.3 20.6-39.6 26.6-.6.2-1.2.4-1.8.7-18.1 6.9-44.2 6.5-62.2-.7-.6-.2-1.2-.5-1.7-.7-3.9-1.5-7.6-3.4-11.3-5.3l-1.6-.8c-8.2-4.2-14.6-9.6-21.2-16-1-1-2.1-2-3.2-3-22.3-20.2-26.1-50.5-25.2-78.7.3-6.9 1.5-13.1 4.2-19.5.3-.8.6-1.5.9-2.3 4.5-11.1 10.1-20.8 18.1-29.7.4-.5.8-1 1.3-1.5 18.8-20.8 43.1-30.7 70.9-30.7m-64.2 26.2c-.7.6-1.4 1.2-2.2 1.8-21.8 20.5-29.4 49.1-27.8 78.2 2.5 27.3 17.4 51.9 39.5 68 23.6 16.3 52.3 21.8 80.3 14.2 16.6-4.8 30.9-12.9 43.2-25.2.3-.4.7-.8 1.1-1.2 20.8-20.9 28.2-49.9 25.9-78.8-3.4-28-20.9-52.9-44.2-68.1-9-5.7-18.7-9-28.8-11.9-1-.3-1.9-.5-2.9-.8-30.3-7-61.5 3.6-84.1 23.8"/><path fill="#342718" d="M140.852 50.874c5.3 5.2 8.7 11.6 12.1 18.1.3.5.6 1.1 1 1.6 7.2 13.1 6.4 34 1.2 47.6-.6 1.6-1.4 3.2-2.2 4.8l-.6 1.5c-7.6 15.2-22.5 28.1-39 32.6-20 4.7-38.7 1.4-55.4-10.9-9.9-7.7-16.6-17.5-21-29.2-.1-.4-.3-.9-.5-1.4-4.5-12.7-4.3-29.1.5-41.6.3-.5.5-1.1.7-1.6 6.8-17 20.7-30.5 38-36.6.8-.3 1.6-.5 2.3-.8.7-.2 1.4-.4 2.1-.7 21.4-6 44.9 1.9 60.8 16.6m-68.9-11.9-2.7 1.2c-17.1 8.1-27.7 23.7-33 41.3-3.9 16.6-.5 36.1 9.8 49.9 2.4 3.1 5.1 5.9 7.9 8.6l1.1 1.1c12.6 12.8 29.3 17.3 46.9 16.1 17.8-1.9 33.2-11.1 44-25.2 10.4-15.6 14.7-35.2 9.4-53.5-5-15.6-15.2-28-29.4-36.5-.6-.4-1.3-.8-1.9-1.2-15-8.2-36.7-9.2-52.1-1.8"/><path fill="#40362B" d="M143.79 54.129c1.2 1.6 2.2 3.2 3.2 4.9-3 0-3 0-4.5-1.5-.5-.7-1.1-1.4-1.6-2.1-13.2-15.7-30.4-19.7-49.9-20.4v-1c19.5-3.4 40.1 5 52.8 20.1"/><path fill="#BC7D0F" d="M158 87h1v28l-4 2c.1-.5.3-1 .4-1.6 1.5-6.2 2-12.1 2.2-18.5.1-.9.1-1.9.1-2.9.1-2.3.2-4.7.3-7"/><path fill="#463A2A" d="M47 133c4.1 3.4 7.8 6.7 11 11-3.8-.5-5.3-2.1-7.8-4.9-.6-.7-1.2-1.5-1.8-2.2C47 135 47 135 47 133"/><path fill="#EB9B08" d="M150 64c2 .7 4 1.3 6 2-.3 2.3-.7 4.6-1 7-2.3-2.9-3.8-5.5-5-9"/><path fill="#EE9E07" d="M129 150c0 3 0 3-1.4 4.7-1.6 1.3-1.6 1.3-3.6 1.3v-2c-1-.3-2-.7-3-1 1-.5 1.9-1 2.9-1.5.5-.3 1-.6 1.6-.8 1.5-.7 1.5-.7 3.5-.7"/></svg>